{
    "accessors": [
        {
            "bufferView": 0,
            "byteOffset": 0,
            "componentType": 5126,
            "count": 1014,
            "max": [
                4.330204486846924,
                55.593406677246094,
                15.283990859985352
            ],
            "min": [
                -4.330204486846924,
                -8.592395782470703,
                -13.928722381591797
            ],
            "name": "accessor_buffer_Cube.001_POSITION_0",
            "type": "VEC3"
        },
        {
            "bufferView": 1,
            "byteOffset": 0,
            "componentType": 5126,
            "count": 1014,
            "max": [
                1.0,
                1.0,
                1.0
            ],
            "min": [
                -1.0,
                -1.0,
                -0.9999637603759766
            ],
            "name": "accessor_buffer_Cube.001_NORMAL_0",
            "type": "VEC3"
        },
        {
            "bufferView": 2,
            "byteOffset": 0,
            "componentType": 5123,
            "count": 1254,
            "max": [
                897
            ],
            "min": [
                0
            ],
            "name": "accessor_buffer_Cube.001_0",
            "type": "SCALAR"
        },
        {
            "bufferView": 3,
            "byteOffset": 0,
            "componentType": 5123,
            "count": 216,
            "max": [
                1013
            ],
            "min": [
                526
            ],
            "name": "accessor_buffer_Cube.001_1",
            "type": "SCALAR"
        },
        {
            "bufferView": 4,
            "byteOffset": 0,
            "componentType": 5126,
            "count": 246,
            "max": [
                0.8843382596969604,
                -0.8484716415405273,
                5.474191665649414
            ],
            "min": [
                -3.4536380767822266,
                -14.176506042480469,
                -1.8332998752593994
            ],
            "name": "accessor_buffer_Cube.002_POSITION_0",
            "type": "VEC3"
        },
        {
            "bufferView": 5,
            "byteOffset": 0,
            "componentType": 5126,
            "count": 246,
            "max": [
                0.9936255812644958,
                0.9999240040779114,
                0.9884157776832581
            ],
            "min": [
                -0.962218701839447,
                -1.0,
                -0.9884158372879028
            ],
            "name": "accessor_buffer_Cube.002_NORMAL_0",
            "type": "VEC3"
        },
        {
            "bufferView": 6,
            "byteOffset": 0,
            "componentType": 5123,
            "count": 366,
            "max": [
                245
            ],
            "min": [
                0
            ],
            "name": "accessor_buffer_Cube.002_0",
            "type": "SCALAR"
        },
        {
            "bufferView": 7,
            "byteOffset": 0,
            "componentType": 5126,
            "count": 392,
            "max": [
                2.1467971801757812,
                5.809731960296631,
                3.0177853107452393
            ],
            "min": [
                -2.1382553577423096,
                -5.792501926422119,
                -3.0630319118499756
            ],
            "name": "accessor_buffer_Cube.003_POSITION_0",
            "type": "VEC3"
        },
        {
            "bufferView": 8,
            "byteOffset": 0,
            "componentType": 5126,
            "count": 392,
            "max": [
                0.9996798038482666,
                1.0,
                0.913379430770874
            ],
            "min": [
                -0.9995017051696777,
                -1.0,
                -0.8926434516906738
            ],
            "name": "accessor_buffer_Cube.003_NORMAL_0",
            "type": "VEC3"
        },
        {
            "bufferView": 9,
            "byteOffset": 0,
            "componentType": 5123,
            "count": 588,
            "max": [
                391
            ],
            "min": [
                0
            ],
            "name": "accessor_buffer_Cube.003_0",
            "type": "SCALAR"
        },
        {
            "bufferView": 10,
            "byteOffset": 0,
            "componentType": 5126,
            "count": 96,
            "max": [
                0.4085026979446411,
                2.8889288902282715,
                0.5549460649490356
            ],
            "min": [
                -0.39505183696746826,
                -5.394157409667969,
                -0.5722286105155945
            ],
            "name": "accessor_buffer_Cube.007_POSITION_0",
            "type": "VEC3"
        },
        {
            "bufferView": 11,
            "byteOffset": 0,
            "componentType": 5126,
            "count": 96,
            "max": [
                0.9919241070747375,
                0.37398838996887207,
                0.8695630431175232
            ],
            "min": [
                -0.9979677796363831,
                -1.0,
                -0.7786228060722351
            ],
            "name": "accessor_buffer_Cube.007_NORMAL_0",
            "type": "VEC3"
        },
        {
            "bufferView": 12,
            "byteOffset": 0,
            "componentType": 5123,
            "count": 36,
            "max": [
                23
            ],
            "min": [
                0
            ],
            "name": "accessor_buffer_Cube.007_0",
            "type": "SCALAR"
        },
        {
            "bufferView": 13,
            "byteOffset": 0,
            "componentType": 5123,
            "count": 102,
            "max": [
                95
            ],
            "min": [
                24
            ],
            "name": "accessor_buffer_Cube.007_1",
            "type": "SCALAR"
        }
    ],
    "asset": {
        "copyright": "",
        "generator": "blendergltf v1.2.0",
        "version": "2.0"
    },
    "bufferViews": [
        {
            "buffer": 0,
            "byteLength": 12168,
            "byteOffset": 0,
            "byteStride": 12,
            "name": "bufferView_buffer_Cube.001_POSITION_0",
            "target": 34962
        },
        {
            "buffer": 1,
            "byteLength": 12168,
            "byteOffset": 0,
            "byteStride": 12,
            "name": "bufferView_buffer_Cube.001_NORMAL_0",
            "target": 34962
        },
        {
            "buffer": 2,
            "byteLength": 2508,
            "byteOffset": 0,
            "name": "bufferView_buffer_Cube.001_0",
            "target": 34963
        },
        {
            "buffer": 2,
            "byteLength": 432,
            "byteOffset": 2508,
            "name": "bufferView_buffer_Cube.001_1",
            "target": 34963
        },
        {
            "buffer": 3,
            "byteLength": 2952,
            "byteOffset": 0,
            "byteStride": 12,
            "name": "bufferView_buffer_Cube.002_POSITION_0",
            "target": 34962
        },
        {
            "buffer": 4,
            "byteLength": 2952,
            "byteOffset": 0,
            "byteStride": 12,
            "name": "bufferView_buffer_Cube.002_NORMAL_0",
            "target": 34962
        },
        {
            "buffer": 5,
            "byteLength": 732,
            "byteOffset": 0,
            "name": "bufferView_buffer_Cube.002_0",
            "target": 34963
        },
        {
            "buffer": 6,
            "byteLength": 4704,
            "byteOffset": 0,
            "byteStride": 12,
            "name": "bufferView_buffer_Cube.003_POSITION_0",
            "target": 34962
        },
        {
            "buffer": 7,
            "byteLength": 4704,
            "byteOffset": 0,
            "byteStride": 12,
            "name": "bufferView_buffer_Cube.003_NORMAL_0",
            "target": 34962
        },
        {
            "buffer": 8,
            "byteLength": 1176,
            "byteOffset": 0,
            "name": "bufferView_buffer_Cube.003_0",
            "target": 34963
        },
        {
            "buffer": 9,
            "byteLength": 1152,
            "byteOffset": 0,
            "byteStride": 12,
            "name": "bufferView_buffer_Cube.007_POSITION_0",
            "target": 34962
        },
        {
            "buffer": 10,
            "byteLength": 1152,
            "byteOffset": 0,
            "byteStride": 12,
            "name": "bufferView_buffer_Cube.007_NORMAL_0",
            "target": 34962
        },
        {
            "buffer": 11,
            "byteLength": 72,
            "byteOffset": 0,
            "name": "bufferView_buffer_Cube.007_0",
            "target": 34963
        },
        {
            "buffer": 11,
            "byteLength": 204,
            "byteOffset": 72,
            "name": "bufferView_buffer_Cube.007_1",
            "target": 34963
        }
    ],
    "buffers": [
        {
            "byteLength": 12168,
            "name": "buffer_Cube.001_POSITION",
            "uri": "data:application/octet-stream;base64,"
        },
        {
            "byteLength": 12168,
            "name": "buffer_Cube.001_NORMAL",
            "uri": "data:application/octet-stream;base64,"
        },
        {
            "byteLength": 2940,
            "name": "buffer_Cube.001",
            "uri": "data:application/octet-stream;base64,"
        },
        {
            "byteLength": 2952,
            "name": "buffer_Cube.002_POSITION",
            "uri": "data:application/octet-stream;base64,"
        },
        {
            "byteLength": 2952,
            "name": "buffer_Cube.002_NORMAL",
            "uri": "data:application/octet-stream;base64,"
        },
        {
            "byteLength": 732,
            "name": "buffer_Cube.002",
            "uri": "data:application/octet-stream;base64,"
        },
        {
            "byteLength": 4704,
            "name": "buffer_Cube.003_POSITION",
            "uri": "data:application/octet-stream;base64,"
        },
        {
            "byteLength": 4704,
            "name": "buffer_Cube.003_NORMAL",
            "uri": "data:application/octet-stream;base64,"
        },
        {
            "byteLength": 1176,
            "name": "buffer_Cube.003",
            "uri": "data:application/octet-stream;base64,"
        },
        {
            "byteLength": 1152,
            "name": "buffer_Cube.007_POSITION",
            "uri": "data:application/octet-stream;base64,"
        },
        {
            "byteLength": 1152,
            "name": "buffer_Cube.007_NORMAL",
            "uri": "data:application/octet-stream;base64,"
        },
        {
            "byteLength": 276,
            "name": "buffer_Cube.007",
            "uri": "data:application/octet-stream;base64,"
        }
    ],
    "cameras": [
        {
            "name": "Camera.001",
            "perspective": {
                "aspectRatio": 1.6481855318292042,
                "yfov": 0.6890772581100464,
                "zfar": 100.0,
                "znear": 0.10000000149011612
            },
            "type": "perspective"
        }
    ],
    "extensions": {
        "KHR_lights": {
            "lights": [
                {
                    "directional": {
                        "color": [
                            0.44999998807907104,
                            0.18411657214164734,
                            0.08143743127584457
                        ]
                    },
                    "name": "Sun",
                    "type": "directional"
                },
                {
                    "directional": {
                        "color": [
                            0.164973184466362,
                            0.1435992568731308,
                            0.6399999856948853
                        ]
                    },
                    "name": "Sun.001",
                    "type": "directional"
                }
            ]
        }
    },
    "extensionsUsed": [
        "KHR_lights",
        "BLENDER_physics"
    ],
    "images": [
        {
            "name": "Render Result",
            "uri": ""
        }
    ],
    "materials": [
        {
            "name": "brass a"
        },
        {
            "name": "brass b"
        },
        {
            "name": "metal"
        },
        {
            "name": "wood"
        }
    ],
    "meshes": [
        {
            "name": "Cube.001",
            "primitives": [
                {
                    "attributes": {
                        "NORMAL": 1,
                        "POSITION": 0
                    },
                    "indices": 2,
                    "material": 2,
                    "mode": 4
                },
                {
                    "attributes": {
                        "NORMAL": 1,
                        "POSITION": 0
                    },
                    "indices": 3,
                    "material": 3,
                    "mode": 4
                }
            ]
        },
        {
            "name": "Cube.002",
            "primitives": [
                {
                    "attributes": {
                        "NORMAL": 5,
                        "POSITION": 4
                    },
                    "indices": 6,
                    "material": 2,
                    "mode": 4
                }
            ]
        },
        {
            "name": "Cube.003",
            "primitives": [
                {
                    "attributes": {
                        "NORMAL": 8,
                        "POSITION": 7
                    },
                    "indices": 9,
                    "material": 2,
                    "mode": 4
                }
            ]
        },
        {
            "name": "Cube.007",
            "primitives": [
                {
                    "attributes": {
                        "NORMAL": 11,
                        "POSITION": 10
                    },
                    "indices": 12,
                    "material": 0,
                    "mode": 4
                },
                {
                    "attributes": {
                        "NORMAL": 11,
                        "POSITION": 10
                    },
                    "indices": 13,
                    "material": 1,
                    "mode": 4
                }
            ]
        }
    ],
    "nodes": [
        {
            "mesh": 3,
            "name": "bullet.000",
            "rotation": [
                1.5720647184025438e-07,
                0.8967080116271973,
                1.966622136251317e-07,
                0.442622572183609
            ],
            "scale": [
                1.157832384109497,
                0.9999998807907104,
                0.883149266242981
            ],
            "translation": [
                -2.1147964000701904,
                -8.125842094421387,
                4.238004684448242
            ]
        },
        {
            "mesh": 3,
            "name": "bullet.001",
            "rotation": [
                1.5720647184025438e-07,
                0.8967080116271973,
                1.966622136251317e-07,
                0.442622572183609
            ],
            "scale": [
                1.157832384109497,
                0.9999998807907104,
                0.883149266242981
            ],
            "translation": [
                -1.0695006847381592,
                -8.125842094421387,
                4.643131256103516
            ]
        },
        {
            "mesh": 3,
            "name": "bullet.002",
            "rotation": [
                0.4278193414211273,
                -0.5630015730857849,
                -0.5630012154579163,
                0.4278194308280945
            ],
            "scale": [
                0.23402895033359528,
                0.10408028215169907,
                0.1881137639284134
            ],
            "translation": [
                -0.8176483511924744,
                -0.8428390026092529,
                0.22933146357536316
            ]
        },
        {
            "mesh": 3,
            "name": "bullet.003",
            "rotation": [
                1.5720647184025438e-07,
                0.8967080116271973,
                1.966622136251317e-07,
                0.442622572183609
            ],
            "scale": [
                1.157832384109497,
                0.9999998807907104,
                0.883149266242981
            ],
            "translation": [
                -2.6083285808563232,
                -8.125842094421387,
                2.380303382873535
            ]
        },
        {
            "mesh": 3,
            "name": "bullet.004",
            "rotation": [
                0.4278193414211273,
                -0.5630015730857849,
                -0.5630012154579163,
                0.4278194308280945
            ],
            "scale": [
                0.23402895033359528,
                0.10408028215169907,
                0.1881137639284134
            ],
            "translation": [
                -0.8176483511924744,
                -0.2428390085697174,
                0.22933146357536316
            ]
        },
        {
            "mesh": 3,
            "name": "bullet.006",
            "rotation": [
                0.4278193414211273,
                -0.5630015730857849,
                -0.5630012154579163,
                0.4278194308280945
            ],
            "scale": [
                0.23402895033359528,
                0.10408028215169907,
                0.1881137639284134
            ],
            "translation": [
                -0.8176483511924744,
                0.4571610689163208,
                0.22933146357536316
            ]
        },
        {
            "camera": 0,
            "name": "Camera",
            "rotation": [
                0.5975020527839661,
                0.2769247889518738,
                0.3164414167404175,
                0.6827656030654907
            ],
            "scale": [
                1.0,
                1.0,
                1.0
            ],
            "translation": [
                3.8612046241760254,
                -6.262137413024902,
                1.1695570945739746
            ]
        },
        {
            "mesh": 2,
            "name": "chambers",
            "rotation": [
                1.5720647184025438e-07,
                0.8967080116271973,
                1.966622136251317e-07,
                0.442622572183609
            ],
            "scale": [
                1.157832384109497,
                0.9999998807907104,
                0.883149266242981
            ],
            "translation": [
                -1.2324512004852295,
                -7.7490034103393555,
                2.9163713455200195
            ]
        },
        {
            "children": [
                0,
                1,
                3,
                7
            ],
            "mesh": 1,
            "name": "mechanism",
            "rotation": [
                2.8201323942766976e-08,
                0.8930196166038513,
                2.0875766892913816e-08,
                0.4500178098678589
            ],
            "scale": [
                1.7668558359146118,
                0.7857784032821655,
                1.4202086925506592
            ],
            "translation": [
                2.3903026580810547,
                18.749130249023438,
                5.2671284675598145
            ]
        },
        {
            "children": [
                8
            ],
            "mesh": 0,
            "name": "revolver",
            "rotation": [
                0.0,
                0.0,
                0.0,
                1.0
            ],
            "scale": [
                0.1324550211429596,
                0.1324550211429596,
                0.1324550211429596
            ],
            "translation": [
                -2.926854133605957,
                -2.6028876304626465,
                5.960464477539063e-08
            ]
        },
        {
            "extensions": {
                "KHR_lights": {
                    "light": 0
                }
            },
            "name": "Sun",
            "rotation": [
                0.31350767612457275,
                -0.2698611915111542,
                0.29027625918388367,
                0.8629181981086731
            ],
            "scale": [
                1.0,
                1.0,
                0.9999999403953552
            ],
            "translation": [
                -8.121294021606445,
                -0.07335948944091797,
                0.07857561111450195
            ]
        },
        {
            "extensions": {
                "KHR_lights": {
                    "light": 1
                }
            },
            "name": "Sun.001",
            "rotation": [
                0.40366923809051514,
                0.09035053849220276,
                0.8655277490615845,
                0.2824001908302307
            ],
            "scale": [
                1.0,
                1.0,
                1.0
            ],
            "translation": [
                0.8000154495239258,
                1.0659147500991821,
                0.07857561111450195
            ]
        }
    ],
    "scene": 0,
    "scenes": [
        {
            "extensions": {
                "BLENDER_physics": {
                    "gravity": -9.8100004196167
                }
            },
            "extras": {
                "active_camera": -1,
                "background_color": [
                    0.0,
                    0.0,
                    0.0
                ],
                "frames_per_second": 24
            },
            "name": "Scene",
            "nodes": [
                5,
                4,
                11,
                10,
                6,
                9,
                2
            ]
        }
    ],
    "textures": [
        {
            "name": "Tex"
        }
    ]
}