{
    "accessors": [
        {
            "bufferView": 0,
            "byteOffset": 0,
            "componentType": 5126,
            "count": 455,
            "max": [
                167.15606689453125,
                24.016300201416016,
                1.1620968580245972
            ],
            "min": [
                -25.795433044433594,
                -22.690807342529297,
                -31.162269592285156
            ],
            "name": "accessor_buffer_money_POSITION_0",
            "type": "VEC3"
        },
        {
            "bufferView": 1,
            "byteOffset": 0,
            "componentType": 5126,
            "count": 455,
            "max": [
                1.0,
                1.0,
                1.0
            ],
            "min": [
                -1.0,
                -1.0,
                -1.0
            ],
            "name": "accessor_buffer_money_NORMAL_0",
            "type": "VEC3"
        },
        {
            "bufferView": 2,
            "byteOffset": 0,
            "componentType": 5123,
            "count": 696,
            "max": [
                344
            ],
            "min": [
                0
            ],
            "name": "accessor_buffer_money_0",
            "type": "SCALAR"
        },
        {
            "bufferView": 3,
            "byteOffset": 0,
            "componentType": 5123,
            "count": 132,
            "max": [
                430
            ],
            "min": [
                345
            ],
            "name": "accessor_buffer_money_1",
            "type": "SCALAR"
        },
        {
            "bufferView": 4,
            "byteOffset": 0,
            "componentType": 5123,
            "count": 36,
            "max": [
                454
            ],
            "min": [
                431
            ],
            "name": "accessor_buffer_money_2",
            "type": "SCALAR"
        }
    ],
    "asset": {
        "copyright": "",
        "generator": "blendergltf v1.2.0",
        "version": "2.0"
    },
    "bufferViews": [
        {
            "buffer": 0,
            "byteLength": 5460,
            "byteOffset": 0,
            "byteStride": 12,
            "name": "bufferView_buffer_money_POSITION_0",
            "target": 34962
        },
        {
            "buffer": 1,
            "byteLength": 5460,
            "byteOffset": 0,
            "byteStride": 12,
            "name": "bufferView_buffer_money_NORMAL_0",
            "target": 34962
        },
        {
            "buffer": 2,
            "byteLength": 1392,
            "byteOffset": 0,
            "name": "bufferView_buffer_money_0",
            "target": 34963
        },
        {
            "buffer": 2,
            "byteLength": 264,
            "byteOffset": 1392,
            "name": "bufferView_buffer_money_1",
            "target": 34963
        },
        {
            "buffer": 2,
            "byteLength": 72,
            "byteOffset": 1656,
            "name": "bufferView_buffer_money_2",
            "target": 34963
        }
    ],
    "buffers": [
        {
            "byteLength": 5460,
            "name": "buffer_money_POSITION",
            "uri": "data:application/octet-stream;base64,"
        },
        {
            "byteLength": 5460,
            "name": "buffer_money_NORMAL",
            "uri": "data:application/octet-stream;base64,"
        },
        {
            "byteLength": 1728,
            "name": "buffer_money",
            "uri": "data:application/octet-stream;base64,"
        }
    ],
    "extensions": {
        "KHR_lights": {
            "lights": []
        }
    },
    "extensionsUsed": [
        "KHR_lights",
        "BLENDER_physics",
        "BP_materials_legacy"
    ],
    "materials": [
        {
            "extensions": {
                "BP_materials_legacy": {
                    "bpLegacy": {
                        "ambientFactor": [
                            1.0,
                            1.0,
                            1.0,
                            1.0
                        ],
                        "diffuseFactor": [
                            0.028521910309791565,
                            0.64000004529953,
                            0.003170187119394541,
                            1.0
                        ],
                        "emissionFactor": [
                            0.003565238555893302,
                            0.08000000566244125,
                            0.00039627336082048714,
                            1.0
                        ],
                        "shininessFactor": 50,
                        "specularFactor": [
                            0.0,
                            0.0,
                            0.0,
                            1.0
                        ]
                    }
                }
            },
            "name": "money_color"
        },
        {
            "extensions": {
                "BP_materials_legacy": {
                    "bpLegacy": {
                        "ambientFactor": [
                            1.0,
                            1.0,
                            1.0,
                            1.0
                        ],
                        "diffuseFactor": [
                            0.01892046257853508,
                            0.01892046257853508,
                            0.01892046257853508,
                            1.0
                        ],
                        "emissionFactor": [
                            0.001892046188004315,
                            0.001892046188004315,
                            0.001892046188004315,
                            1.0
                        ],
                        "shininessFactor": 50,
                        "specularFactor": [
                            0.0,
                            0.0,
                            0.0,
                            1.0
                        ]
                    }
                }
            },
            "name": "money_letters"
        },
        {
            "extensions": {
                "BP_materials_legacy": {
                    "bpLegacy": {
                        "ambientFactor": [
                            1.0,
                            1.0,
                            1.0,
                            1.0
                        ],
                        "diffuseFactor": [
                            0.64000004529953,
                            0.0021424787119030952,
                            0.0,
                            1.0
                        ],
                        "emissionFactor": [
                            0.06400000303983688,
                            0.0002142478624591604,
                            0.0,
                            1.0
                        ],
                        "shininessFactor": 50,
                        "specularFactor": [
                            0.0,
                            0.0,
                            0.0,
                            1.0
                        ]
                    }
                }
            },
            "name": "money_ribbon"
        }
    ],
    "meshes": [
        {
            "name": "money",
            "primitives": [
                {
                    "attributes": {
                        "NORMAL": 1,
                        "POSITION": 0
                    },
                    "indices": 2,
                    "material": 1,
                    "mode": 4
                },
                {
                    "attributes": {
                        "NORMAL": 1,
                        "POSITION": 0
                    },
                    "indices": 3,
                    "material": 0,
                    "mode": 4
                },
                {
                    "attributes": {
                        "NORMAL": 1,
                        "POSITION": 0
                    },
                    "indices": 4,
                    "material": 2,
                    "mode": 4
                }
            ]
        }
    ],
    "nodes": [
        {
            "mesh": 0,
            "name": "money",
            "rotation": [
                1.0,
                0.0,
                0.0,
                -1.6292068494294654e-07
            ],
            "scale": [
                0.00196953397244215,
                0.0039298017509281635,
                0.00196953397244215
            ],
            "translation": [
                -0.13920728862285614,
                0.002604469656944275,
                -0.029797766357660294
            ]
        }
    ],
    "scene": 0,
    "scenes": [
        {
            "extensions": {
                "BLENDER_physics": {
                    "gravity": -9.8100004196167
                }
            },
            "extras": {
                "background_color": [
                    0.05087608844041824,
                    0.05087608844041824,
                    0.05087608844041824
                ],
                "frames_per_second": 24
            },
            "name": "Scene",
            "nodes": [
                0
            ]
        }
    ],
    "textures": [
        {
            "name": "Tex"
        }
    ]
}